<svg height="480pt" viewBox="0 -16 480.00003 480" width="480pt" xmlns="http://www.w3.org/2000/svg"><path d="m472 128.007812c.03125-57.871093-41.265625-107.511718-98.175781-118.011718-56.910157-10.5-113.203125 21.136718-133.824219 75.210937-20.621094-54.074219-76.910156-85.710937-133.824219-75.210937-56.910156 10.5-98.207031 60.140625-98.175781 118.011718 0 136 165.726562 312 232 312s232-176 232-312zm0 0" fill="#fa507f"/><path d="m152 208.007812c-22.082031-.027343-39.972656-17.921874-40-40 0-4.421874 3.582031-8 8-8s8 3.578126 8 8c0 13.253907 10.746094 24 24 24s24-10.746093 24-24c0-4.421874 3.582031-8 8-8s8 3.578126 8 8c-.027344 22.078126-17.917969 39.972657-40 40zm0 0" fill="#603913"/><path d="m328 208.007812c-22.082031-.027343-39.972656-17.921874-40-40 0-4.421874 3.582031-8 8-8s8 3.578126 8 8c0 13.253907 10.746094 24 24 24s24-10.746093 24-24c0-4.421874 3.582031-8 8-8s8 3.578126 8 8c-.027344 22.078126-17.917969 39.972657-40 40zm0 0" fill="#603913"/><path d="m288 320.007812c-4.417969 0-8-3.582031-8-8 0-22.09375-17.910156-40-40-40s-40 17.90625-40 40c0 4.417969-3.582031 8-8 8s-8-3.582031-8-8c0-30.929687 25.070312-56 56-56s56 25.070313 56 56c0 4.417969-3.582031 8-8 8zm0 0" fill="#a21d1f"/><path d="m352 .0078125c-46.570312.2187495-89.394531 25.5624995-112 66.2773435-28.140625-51.183594-87.378906-76.800781-143.945312-62.253906-56.570313 14.546875-96.0976568 65.566406-96.054688 123.976562 0 137.40625 164.671875 320 240 320s240-182.59375 240-320c-.082031-70.660156-57.34375-127.9179682-128-127.9999995zm-112 431.9999995c-60 0-224-172.347656-224-304-.03125-54.015624 38.511719-100.347656 91.628906-110.148437 53.117188-9.796875 105.65625 19.734375 124.898438 70.203125 1.183594 3.097656 4.15625 5.140625 7.472656 5.140625s6.289062-2.042969 7.472656-5.140625c19.242188-50.46875 71.78125-80 124.898438-70.203125 53.117187 9.800781 91.660156 56.132813 91.628906 110.148437 0 131.652344-164 304-224 304zm0 0"/><path d="m184 160.007812c-4.417969 0-8 3.578126-8 8 0 13.253907-10.746094 24-24 24s-24-10.746093-24-24c0-4.421874-3.582031-8-8-8s-8 3.578126-8 8c0 22.089844 17.910156 40 40 40s40-17.910156 40-40c0-4.421874-3.582031-8-8-8zm0 0"/><path d="m360 160.007812c-4.417969 0-8 3.578126-8 8 0 13.253907-10.746094 24-24 24s-24-10.746093-24-24c0-4.421874-3.582031-8-8-8s-8 3.578126-8 8c0 22.089844 17.910156 40 40 40s40-17.910156 40-40c0-4.421874-3.582031-8-8-8zm0 0"/><path d="m240 256.007812c-30.914062.035157-55.964844 25.085938-56 56 0 4.417969 3.582031 8 8 8s8-3.582031 8-8c0-22.09375 17.910156-40 40-40s40 17.90625 40 40c0 4.417969 3.582031 8 8 8s8-3.582031 8-8c-.035156-30.914062-25.085938-55.964843-56-56zm0 0"/></svg>